# xmcd
#
# Track frame offsets: 
#        150
#        21499
#        47958
#        71627
#        91935
#        112140
#        134829
#        154959
#        173785
#        192984
#        212340
#        232716
#        247964
#
# Disc length: 3617 seconds
#
# Revision: 0
# Processed by: cddbd v1.5.2PL0 Copyright (c) Steve Scherf et al.
# Submitted via: ExactAudioCopy v0.99pb5
#
DISCID=b80e1f0d
DTITLE=Богушевская Ирина - Шелк
DYEAR=2010
DGENRE=Pop
TTITLE0=Слушай меня
TTITLE1=Тростник
TTITLE2=Шелк
TTITLE3=Ключи в твоих руках
TTITLE4=Добро пожаловать домой
TTITLE5=Сандаловый пепел
TTITLE6=Гость
TTITLE7=С тобой, с тобой
TTITLE8=Шестьсот ночей и дней
TTITLE9=Снова живи
TTITLE10=Не для нас
TTITLE11=Как ласточка
TTITLE12=Шелк - ремикс
EXTD=
EXTT0=
EXTT1=
EXTT2=
EXTT3=
EXTT4=
EXTT5=
EXTT6=
EXTT7=
EXTT8=
EXTT9=
EXTT10=
EXTT11=
EXTT12=
PLAYORDER=
